<svg xmlns="http://www.w3.org/2000/svg" width="900" height="1500" viewBox="0 0 900 1500"><rect width="100%" height="100%" fill="#DDDDDD"/><path fill="#999999" d="M194.935 734.68q0 6.42 3.31 9.78 3.32 3.37 9.41 3.37 3.18 0 5.67-1.01 2.49-1.01 4.19-2.75 1.7-1.75 2.57-4.14.88-2.38.88-5.14 0-3.13-.96-5.59-.95-2.47-2.7-4.16-1.75-1.7-4.16-2.6-2.41-.9-5.28-.9-2.96 0-5.35.98-2.38.98-4.08 2.73-1.7 1.75-2.6 4.16-.9 2.41-.9 5.27Zm-6.41 53.64 23.8-29.73q.9-1.12 1.69-2.18.8-1.06 1.54-2.12-2.65 1.7-5.83 2.57-3.18.88-6.68.88-3.97 0-7.79-1.38t-6.78-4.16q-2.97-2.78-4.8-6.89-1.83-4.11-1.83-9.62 0-5.14 1.91-9.64 1.91-4.51 5.35-7.9 3.45-3.39 8.27-5.35 4.82-1.97 10.65-1.97 5.89 0 10.58 1.86 4.69 1.85 8 5.19 3.31 3.34 5.09 8.01 1.77 4.66 1.77 10.23 0 3.55-.61 6.73-.61 3.18-1.72 6.12-1.11 2.94-2.7 5.75t-3.55 5.56l-17.55 25.02q-.9 1.27-2.7 2.15-1.8.87-4.08.87h-12.03ZM297.755 750q0 10.02-2.14 17.41-2.15 7.4-5.94 12.22-3.79 4.82-8.96 7.18-5.17 2.36-11.15 2.36-5.99 0-11.11-2.36-5.11-2.36-8.88-7.18-3.76-4.82-5.88-12.22-2.12-7.39-2.12-17.41 0-10.07 2.12-17.44 2.12-7.36 5.88-12.19 3.77-4.82 8.88-7.18 5.12-2.36 11.11-2.36 5.98 0 11.15 2.36t8.96 7.18q3.79 4.83 5.94 12.19 2.14 7.37 2.14 17.44Zm-13.51 0q0-8.32-1.22-13.78-1.22-5.46-3.26-8.69-2.04-3.23-4.69-4.53-2.65-1.3-5.51-1.3-2.81 0-5.44 1.3-2.62 1.3-4.63 4.53-2.02 3.23-3.21 8.69-1.19 5.46-1.19 13.78t1.19 13.78q1.19 5.46 3.21 8.69 2.01 3.24 4.63 4.53 2.63 1.3 5.44 1.3 2.86 0 5.51-1.3 2.65-1.29 4.69-4.53 2.04-3.23 3.26-8.69 1.22-5.46 1.22-13.78Zm74.99 0q0 10.02-2.14 17.41-2.15 7.4-5.94 12.22-3.79 4.82-8.96 7.18-5.17 2.36-11.15 2.36-5.99 0-11.11-2.36-5.11-2.36-8.88-7.18-3.76-4.82-5.88-12.22-2.12-7.39-2.12-17.41 0-10.07 2.12-17.44 2.12-7.36 5.88-12.19 3.77-4.82 8.88-7.18 5.12-2.36 11.11-2.36 5.98 0 11.15 2.36t8.96 7.18q3.79 4.83 5.94 12.19 2.14 7.37 2.14 17.44Zm-13.51 0q0-8.32-1.22-13.78-1.22-5.46-3.26-8.69-2.04-3.23-4.69-4.53-2.65-1.3-5.51-1.3-2.81 0-5.44 1.3-2.62 1.3-4.63 4.53-2.02 3.23-3.21 8.69-1.19 5.46-1.19 13.78t1.19 13.78q1.19 5.46 3.21 8.69 2.01 3.24 4.63 4.53 2.63 1.3 5.44 1.3 2.86 0 5.51-1.3 2.65-1.29 4.69-4.53 2.04-3.23 3.26-8.69 1.22-5.46 1.22-13.78Zm97.68 20.78-6.95 6.83-17.96-17.96-18.13 18.07-6.94-6.84 18.12-18.18-17.28-17.27 6.89-6.89 17.28 17.27 17.17-17.17 7 6.89-17.22 17.23 18.02 18.02Zm72.55 7.74h13.78v9.8h-42.4v-9.8h15.53v-44.68q0-2.65.16-5.46l-11.02 9.22q-.96.74-1.88.93-.93.18-1.75.02-.83-.16-1.46-.55-.64-.4-.96-.88l-4.13-5.67 23.37-19.87h10.76v66.94Zm44.63-54.97-2.7 15.96q2.54-.53 4.87-.77t4.51-.24q6.04 0 10.65 1.8t7.74 4.98q3.12 3.18 4.71 7.45 1.59 4.27 1.59 9.2 0 6.09-2.14 11.13-2.15 5.03-5.96 8.61-3.82 3.58-9.04 5.54-5.22 1.96-11.37 1.96-3.6 0-6.84-.74-3.23-.75-6.06-1.99-2.84-1.25-5.25-2.86-2.41-1.62-4.32-3.42l4.03-5.57q1.27-1.8 3.34-1.8 1.32 0 2.7.85 1.38.85 3.15 1.85 1.78 1.01 4.19 1.86 2.41.85 5.8.85 3.61 0 6.36-1.17 2.76-1.17 4.59-3.26t2.75-4.98q.93-2.89.93-6.28 0-6.25-3.63-9.78-3.63-3.52-10.73-3.52-5.46 0-11.19 2.01l-8.16-2.33 6.36-37.21h37.84v5.57q0 2.81-1.74 4.55-1.75 1.75-5.94 1.75h-21.04Zm96.09 26.45q0 10.02-2.15 17.41-2.15 7.4-5.93 12.22-3.79 4.82-8.96 7.18-5.17 2.36-11.16 2.36t-11.1-2.36q-5.12-2.36-8.88-7.18-3.76-4.82-5.88-12.22-2.12-7.39-2.12-17.41 0-10.07 2.12-17.44 2.12-7.36 5.88-12.19 3.76-4.82 8.88-7.18 5.11-2.36 11.1-2.36 5.99 0 11.16 2.36t8.96 7.18q3.78 4.83 5.93 12.19 2.15 7.37 2.15 17.44Zm-13.52 0q0-8.32-1.22-13.78-1.22-5.46-3.26-8.69-2.04-3.23-4.69-4.53-2.65-1.3-5.51-1.3-2.81 0-5.43 1.3-2.62 1.3-4.64 4.53-2.01 3.23-3.2 8.69-1.2 5.46-1.2 13.78t1.2 13.78q1.19 5.46 3.2 8.69 2.02 3.24 4.64 4.53 2.62 1.3 5.43 1.3 2.86 0 5.51-1.3 2.65-1.29 4.69-4.53 2.04-3.23 3.26-8.69 1.22-5.46 1.22-13.78Zm75 0q0 10.02-2.15 17.41-2.15 7.4-5.93 12.22-3.79 4.82-8.96 7.18-5.17 2.36-11.16 2.36t-11.1-2.36q-5.12-2.36-8.88-7.18-3.76-4.82-5.88-12.22-2.12-7.39-2.12-17.41 0-10.07 2.12-17.44 2.12-7.36 5.88-12.19 3.76-4.82 8.88-7.18 5.11-2.36 11.1-2.36 5.99 0 11.16 2.36t8.96 7.18q3.78 4.83 5.93 12.19 2.15 7.37 2.15 17.44Zm-13.52 0q0-8.32-1.22-13.78-1.22-5.46-3.26-8.69-2.04-3.23-4.69-4.53-2.65-1.3-5.51-1.3-2.81 0-5.43 1.3-2.62 1.3-4.64 4.53-2.01 3.23-3.2 8.69-1.2 5.46-1.2 13.78t1.2 13.78q1.19 5.46 3.2 8.69 2.02 3.24 4.64 4.53 2.62 1.3 5.43 1.3 2.86 0 5.51-1.3 2.65-1.29 4.69-4.53 2.04-3.23 3.26-8.69 1.22-5.46 1.22-13.78Z"/></svg>