<svg xmlns="http://www.w3.org/2000/svg" width="900" height="500" viewBox="0 0 900 500"><rect width="100%" height="100%" fill="#DDDDDD"/><path fill="#999999" d="M198.17 232.81q0 7.2 3.72 10.97 3.72 3.78 10.56 3.78 3.57 0 6.36-1.13 2.8-1.13 4.7-3.09 1.91-1.97 2.89-4.64.98-2.68.98-5.78 0-3.51-1.07-6.27-1.07-2.77-3.03-4.67-1.97-1.91-4.67-2.92-2.71-1.01-5.92-1.01-3.34 0-6.01 1.1-2.68 1.1-4.59 3.06-1.9 1.97-2.91 4.68-1.01 2.7-1.01 5.92Zm-7.2 60.21 26.71-33.38q1.02-1.25 1.91-2.44.89-1.19 1.72-2.38-2.97 1.9-6.54 2.89-3.57.98-7.5.98-4.46 0-8.75-1.55-4.28-1.55-7.61-4.67t-5.39-7.73q-2.05-4.62-2.05-10.8 0-5.78 2.14-10.83 2.15-5.06 6.01-8.87 3.87-3.81 9.28-6.01 5.42-2.2 11.96-2.2 6.61 0 11.87 2.08 5.27 2.09 8.99 5.83 3.72 3.75 5.71 8.99 1.99 5.23 1.99 11.48 0 3.99-.68 7.56-.68 3.57-1.93 6.87-1.25 3.3-3.04 6.46-1.78 3.15-3.98 6.24l-19.7 28.09q-1.01 1.43-3.03 2.41-2.03.98-4.59.98h-13.5ZM313.6 250q0 11.25-2.41 19.55t-6.67 13.71q-4.25 5.42-10.05 8.06-5.8 2.65-12.53 2.65-6.72 0-12.46-2.65-5.74-2.64-9.97-8.06-4.22-5.41-6.6-13.71T250.53 250q0-11.3 2.38-19.57t6.6-13.69q4.23-5.41 9.97-8.06 5.74-2.65 12.46-2.65 6.73 0 12.53 2.65 5.8 2.65 10.05 8.06 4.26 5.42 6.67 13.69T313.6 250Zm-15.17 0q0-9.34-1.37-15.47-1.37-6.13-3.66-9.76t-5.27-5.08q-2.97-1.46-6.19-1.46-3.15 0-6.09 1.46-2.95 1.45-5.21 5.08t-3.6 9.76q-1.34 6.13-1.34 15.47t1.34 15.47q1.34 6.13 3.6 9.76t5.21 5.09q2.94 1.45 6.09 1.45 3.22 0 6.19-1.45 2.98-1.46 5.27-5.09 2.29-3.63 3.66-9.76t1.37-15.47Zm84.19 0q0 11.25-2.41 19.55t-6.67 13.71q-4.25 5.42-10.05 8.06-5.8 2.65-12.53 2.65-6.72 0-12.46-2.65-5.74-2.64-9.97-8.06-4.22-5.41-6.6-13.71T319.55 250q0-11.3 2.38-19.57t6.6-13.69q4.23-5.41 9.97-8.06 5.74-2.65 12.46-2.65 6.73 0 12.53 2.65 5.8 2.65 10.05 8.06 4.26 5.42 6.67 13.69t2.41 19.57Zm-15.17 0q0-9.34-1.37-15.47-1.37-6.13-3.66-9.76t-5.27-5.08q-2.97-1.46-6.19-1.46-3.15 0-6.09 1.46-2.95 1.45-5.21 5.08t-3.6 9.76q-1.34 6.13-1.34 15.47t1.34 15.47q1.34 6.13 3.6 9.76t5.21 5.09q2.94 1.45 6.09 1.45 3.22 0 6.19-1.45 2.98-1.46 5.27-5.09 2.29-3.63 3.66-9.76t1.37-15.47Zm109.65 23.33-7.79 7.67-20.17-20.17-20.35 20.29-7.79-7.68 20.34-20.4-19.39-19.4 7.73-7.74 19.4 19.4 19.28-19.28 7.85 7.74-19.34 19.34 20.23 20.23Zm62.54-53.02-3.04 17.91q2.86-.59 5.48-.86 2.62-.27 5.06-.27 6.78 0 11.96 2.02 5.17 2.03 8.68 5.6t5.3 8.36q1.78 4.79 1.78 10.32 0 6.84-2.41 12.49-2.41 5.66-6.69 9.67-4.28 4.02-10.15 6.22-5.86 2.2-12.76 2.2-4.04 0-7.67-.83t-6.82-2.23q-3.18-1.4-5.89-3.22-2.7-1.81-4.85-3.83l4.53-6.25q1.42-2.02 3.74-2.02 1.49 0 3.04.95t3.54 2.08q1.99 1.13 4.7 2.08 2.71.96 6.51.96 4.05 0 7.14-1.31 3.1-1.31 5.15-3.66 2.05-2.35 3.1-5.6 1.04-3.24 1.04-7.05 0-7.02-4.08-10.97-4.07-3.96-12.05-3.96-6.13 0-12.55 2.26l-9.17-2.62 7.14-41.77h42.49v6.25q0 3.15-1.97 5.12-1.96 1.96-6.66 1.96h-23.62ZM647.51 250q0 11.25-2.41 19.55t-6.66 13.71q-4.26 5.42-10.06 8.06-5.8 2.65-12.52 2.65-6.73 0-12.47-2.65-5.74-2.64-9.96-8.06-4.23-5.41-6.61-13.71T584.44 250q0-11.3 2.38-19.57t6.61-13.69q4.22-5.41 9.96-8.06 5.74-2.65 12.47-2.65 6.72 0 12.52 2.65t10.06 8.06q4.25 5.42 6.66 13.69t2.41 19.57Zm-15.17 0q0-9.34-1.37-15.47-1.37-6.13-3.66-9.76t-5.26-5.08q-2.98-1.46-6.19-1.46-3.16 0-6.1 1.46-2.95 1.45-5.21 5.08t-3.6 9.76q-1.34 6.13-1.34 15.47t1.34 15.47q1.34 6.13 3.6 9.76t5.21 5.09q2.94 1.45 6.1 1.45 3.21 0 6.19-1.45 2.97-1.46 5.26-5.09 2.29-3.63 3.66-9.76t1.37-15.47Zm84.19 0q0 11.25-2.41 19.55t-6.66 13.71q-4.26 5.42-10.06 8.06-5.8 2.65-12.52 2.65-6.73 0-12.47-2.65-5.74-2.64-9.96-8.06-4.23-5.41-6.61-13.71T653.46 250q0-11.3 2.38-19.57t6.61-13.69q4.22-5.41 9.96-8.06 5.74-2.65 12.47-2.65 6.72 0 12.52 2.65t10.06 8.06q4.25 5.42 6.66 13.69t2.41 19.57Zm-15.17 0q0-9.34-1.37-15.47-1.37-6.13-3.66-9.76t-5.26-5.08q-2.98-1.46-6.19-1.46-3.16 0-6.1 1.46-2.95 1.45-5.21 5.08t-3.6 9.76q-1.34 6.13-1.34 15.47t1.34 15.47q1.34 6.13 3.6 9.76t5.21 5.09q2.94 1.45 6.1 1.45 3.21 0 6.19-1.45 2.97-1.46 5.26-5.09 2.29-3.63 3.66-9.76t1.37-15.47Z"/></svg>